C:\Users\israe\Dropbox\PhDWork\ExperimentalData\subject1\055\P1S055W02_filtered35.mot
nRows=15
nColumns=28

name C:\Users\israe\Dropbox\PhDWork\ExperimentalData\subject1\055\P1S055W02_filtered35.mot
datacolumns 28
datarows 15
range 0.9500000000 0.9640000000
endheader
time	ground_force_1_vx	ground_force_1_vy	ground_force_1_vz	ground_force_1_px	ground_force_1_py	ground_force_1_pz	ground_moment_1_mx	ground_moment_1_my	ground_moment_1_mz	ground_force_2_vx	ground_force_2_vy	ground_force_2_vz	ground_force_2_px	ground_force_2_py	ground_force_2_pz	ground_moment_2_mx	ground_moment_2_my	ground_moment_2_mz	ground_force_3_vx	ground_force_3_vy	ground_force_3_vz	ground_force_3_px	ground_force_3_py	ground_force_3_pz	ground_moment_3_mx	ground_moment_3_my	ground_moment_3_mz
        0.9500000000	       24.3813076651	      668.1473407430	       17.5966344298	        0.2000000000	        0.0000000000	       -0.9030000000	      -25.1548983239	        2.6695637234	      -17.0046113069	        0.0000000000	        0.0000000000	       -0.0000000000	        0.2000000000	        0.0000000000	       -0.3000000000	       -0.0000000000	        0.0000000000	       -0.0000000000	       -0.0000000000	        0.0000000000	        0.0000000000	        0.2000000000	       -0.0000000000	        0.3030000000	       -0.0000000000	       -0.0000000000	       -0.0000000000	
        0.9510000000	       24.4277153513	      668.1536662161	       17.8157051440	        0.2000000000	        0.0000000000	       -0.9030000000	      -25.3013399586	        2.6925947633	      -17.0164076797	        0.0000000000	        0.0000000000	       -0.0000000000	        0.2000000000	        0.0000000000	       -0.3000000000	       -0.0000000000	        0.0000000000	       -0.0000000000	       -0.0000000000	        0.0000000000	        0.0000000000	        0.2000000000	       -0.0000000000	        0.3030000000	       -0.0000000000	       -0.0000000000	       -0.0000000000	
        0.9520000000	       24.4706638863	      668.1820419987	       18.0420048083	        0.2000000000	        0.0000000000	       -0.9030000000	      -25.4482159413	        2.7150714959	      -17.0274419191	        0.0000000000	        0.0000000000	       -0.0000000000	        0.2000000000	        0.0000000000	       -0.3000000000	       -0.0000000000	        0.0000000000	       -0.0000000000	       -0.0000000000	        0.0000000000	        0.0000000000	        0.2000000000	       -0.0000000000	        0.3030000000	       -0.0000000000	       -0.0000000000	       -0.0000000000	
        0.9530000000	       24.5122217077	      668.2273188863	       18.2768970630	        0.2000000000	        0.0000000000	       -0.9030000000	      -25.5949231691	        2.7368119292	      -17.0370119251	        0.0000000000	        0.0000000000	       -0.0000000000	        0.2000000000	        0.0000000000	       -0.3000000000	       -0.0000000000	        0.0000000000	       -0.0000000000	       -0.0000000000	        0.0000000000	        0.0000000000	        0.2000000000	       -0.0000000000	        0.3030000000	       -0.0000000000	       -0.0000000000	       -0.0000000000	
        0.9540000000	       24.5549633766	      668.2832798821	       18.5219689631	        0.2000000000	        0.0000000000	       -0.9030000000	      -25.7412008478	        2.7577207584	      -17.0448969471	       -0.0000000000	        0.0000000000	       -0.0000000000	        0.2000000000	        0.0000000000	       -0.3000000000	       -0.0000000000	        0.0000000000	       -0.0000000000	       -0.0000000000	        0.0000000000	        0.0000000000	        0.2000000000	       -0.0000000000	        0.3030000000	       -0.0000000000	       -0.0000000000	       -0.0000000000	
        0.9550000000	       24.6007087340	      668.3421506165	       18.7784648100	        0.2000000000	        0.0000000000	       -0.9030000000	      -25.8873173801	        2.7777573569	      -17.0511656087	       -0.0000000000	        0.0000000000	        0.0000000000	        0.2000000000	        0.0000000000	       -0.3000000000	        0.0000000000	        0.0000000000	        0.0000000000	       -0.0000000000	        0.0000000000	        0.0000000000	        0.2000000000	       -0.0000000000	        0.3030000000	       -0.0000000000	       -0.0000000000	       -0.0000000000	
        0.9560000000	       24.6500860869	      668.3951573303	       19.0466313613	        0.2000000000	        0.0000000000	       -0.9030000000	      -26.0340461720	        2.7970019726	      -17.0558057526	       -0.0000000000	        0.0000000000	        0.0000000000	        0.2000000000	        0.0000000000	       -0.3000000000	        0.0000000000	       -0.0000000000	        0.0000000000	       -0.0000000000	        0.0000000000	        0.0000000000	        0.2000000000	       -0.0000000000	        0.3030000000	       -0.0000000000	       -0.0000000000	       -0.0000000000	
        0.9570000000	       24.7031863856	      668.4363856688	       19.3252453498	        0.2000000000	        0.0000000000	       -0.9030000000	      -26.1825411272	        2.8157016745	      -17.0585385152	       -0.0000000000	        0.0000000000	        0.0000000000	        0.2000000000	        0.0000000000	       -0.3000000000	        0.0000000000	       -0.0000000000	        0.0000000000	       -0.0000000000	        0.0000000000	        0.0000000000	        0.2000000000	       -0.0000000000	        0.3030000000	       -0.0000000000	       -0.0000000000	       -0.0000000000	
        0.9580000000	       24.7602286262	      668.4656830077	       19.6117836321	        0.2000000000	        0.0000000000	       -0.9030000000	      -26.3338956523	        2.8341707201	      -17.0588920676	       -0.0000000000	        0.0000000000	        0.0000000000	        0.2000000000	        0.0000000000	       -0.3000000000	        0.0000000000	       -0.0000000000	        0.0000000000	       -0.0000000000	        0.0000000000	        0.0000000000	        0.2000000000	       -0.0000000000	        0.3030000000	       -0.0000000000	       -0.0000000000	       -0.0000000000	
        0.9590000000	       24.8212518665	      668.4871925993	       19.9032425551	        0.2000000000	        0.0000000000	       -0.9030000000	      -26.4887040818	        2.8527001209	      -17.0566611515	       -0.0000000000	        0.0000000000	        0.0000000000	        0.2000000000	        0.0000000000	       -0.3000000000	        0.0000000000	       -0.0000000000	        0.0000000000	       -0.0000000000	        0.0000000000	        0.0000000000	        0.2000000000	       -0.0000000000	        0.3030000000	       -0.0000000000	       -0.0000000000	       -0.0000000000	
        0.9600000000	       24.8853245606	      668.5059800100	       20.1967286898	        0.2000000000	        0.0000000000	       -0.9030000000	      -26.6472067225	        2.8715309791	      -17.0524170331	       -0.0000000000	        0.0000000000	        0.0000000000	        0.2000000000	        0.0000000000	       -0.3000000000	        0.0000000000	       -0.0000000000	        0.0000000000	       -0.0000000000	        0.0000000000	        0.0000000000	        0.2000000000	       -0.0000000000	        0.3030000000	       -0.0000000000	       -0.0000000000	       -0.0000000000	
        0.9610000000	       24.9508078972	      668.5270345686	       20.4895296847	        0.2000000000	        0.0000000000	       -0.9030000000	      -26.8096030359	        2.8908962224	      -17.0474065035	       -0.0000000000	        0.0000000000	        0.0000000000	        0.2000000000	        0.0000000000	       -0.3000000000	        0.0000000000	       -0.0000000000	        0.0000000000	        0.0000000000	        0.0000000000	        0.0000000000	        0.2000000000	       -0.0000000000	        0.3030000000	       -0.0000000000	       -0.0000000000	       -0.0000000000	
        0.9620000000	       25.0165550017	      668.5549006334	       20.7793877077	        0.2000000000	        0.0000000000	       -0.9030000000	      -26.9758820401	        2.9110918004	      -17.0429865897	       -0.0000000000	        0.0000000000	        0.0000000000	        0.2000000000	        0.0000000000	       -0.3000000000	        0.0000000000	       -0.0000000000	        0.0000000000	        0.0000000000	        0.0000000000	       -0.0000000000	        0.2000000000	       -0.0000000000	        0.3030000000	       -0.0000000000	       -0.0000000000	       -0.0000000000	
        0.9630000000	       25.0824253150	      668.5918237684	       21.0648062328	        0.2000000000	        0.0000000000	       -0.9030000000	      -27.1455684168	        2.9323512653	      -17.0402754303	       -0.0000000000	        0.0000000000	        0.0000000000	        0.2000000000	        0.0000000000	       -0.3000000000	        0.0000000000	       -0.0000000000	        0.0000000000	        0.0000000000	        0.0000000000	       -0.0000000000	        0.2000000000	       -0.0000000000	        0.3030000000	       -0.0000000000	       -0.0000000000	       -0.0000000000	
        0.9640000000	       25.1488430639	      668.6377057176	       21.3447884993	        0.2000000000	        0.0000000000	       -0.9030000000	      -27.3179963150	        2.9546284139	      -17.0401496755	       -0.0000000000	        0.0000000000	        0.0000000000	        0.2000000000	        0.0000000000	       -0.3000000000	        0.0000000000	       -0.0000000000	        0.0000000000	        0.0000000000	        0.0000000000	       -0.0000000000	        0.2000000000	       -0.0000000000	        0.3030000000	       -0.0000000000	       -0.0000000000	       -0.0000000000	
